<svg width="24" height="24" viewBox="0 0 24 24" fill="none" xmlns="http://www.w3.org/2000/svg">
<path fill-rule="evenodd" clip-rule="evenodd" d="M16 14.6667C16 16.5076 14.5076 18 12.6667 18H8.66667C6.82572 18 5.33333 16.5076 5.33333 14.6667V8H16V10H20V11.3333C20 13.1743 18.5076 14.6667 16.6667 14.6667H16ZM16 11.3333V13.3333H16.6667C17.7712 13.3333 18.6667 12.4379 18.6667 11.3333H16ZM6.66667 9.33333V14.6667C6.66667 15.7712 7.5621 16.6667 8.66667 16.6667H12.6667C13.7712 16.6667 14.6667 15.7712 14.6667 14.6667V9.33333H6.66667ZM4 21.3333V20H17.3333V21.3333H4Z" fill="#43301F" style="fill:#43301F;fill:color(display-p3 0.2627 0.1882 0.1216);fill-opacity:1;"/>
<path d="M10 7.50011C10 6.83344 10.4 5.50011 12 5.50011C13.6 5.50011 14.3333 5.50011 14.5 5.50011V5.50011C15.4405 5.50011 15.7431 3.78205 15.0196 3.1811C14.8867 3.07064 14.7168 3.00011 14.5 3.00011C13.5 3.00011 12 3.32424 12 0.999939" stroke="#43301F" style="stroke:#43301F;stroke:color(display-p3 0.2627 0.1882 0.1216);stroke-opacity:1;" stroke-width="1.33"/>
</svg>
