<svg width="24" height="24" viewBox="0 0 24 24" fill="none" xmlns="http://www.w3.org/2000/svg">
<path fill-rule="evenodd" clip-rule="evenodd" d="M18.4158 13.8152H19.2607V15.0253H18.4158C18.1708 15.5372 18.0506 16.04 18.0506 16.538C18.0506 17.0359 18.1708 17.5387 18.4158 18.0506H19.2607V19.2607H7.46204C5.95829 19.2607 4.73926 18.0417 4.73926 16.538C4.73926 15.6826 5.13365 14.9194 5.75051 14.4202C5.13365 13.9211 4.73926 13.1579 4.73926 12.3025C4.73926 11.4018 5.17664 10.6032 5.85059 10.1076C5.17225 9.5528 4.73926 8.70925 4.73926 7.76457C4.73926 6.09373 6.09373 4.73926 7.76457 4.73926H19.2607V5.94938H18.4373C18.1785 6.5601 18.0506 7.16402 18.0506 7.76457C18.0506 8.36511 18.1785 8.96904 18.4373 9.57975H19.2607V10.7899H18.4158C18.1708 11.3018 18.0506 11.8046 18.0506 12.3025C18.0506 12.8005 18.1708 13.3033 18.4158 13.8152ZM7.46204 15.0253C6.62662 15.0253 5.94938 15.7025 5.94938 16.538C5.94938 17.3734 6.62662 18.0506 7.46204 18.0506H17.107C16.93 17.5503 16.8405 17.0455 16.8405 16.538C16.8405 16.0305 16.93 15.5257 17.107 15.0253H7.46204ZM12 11.1605V8.36963H9.57975V11.1605L10.7899 10.7572L12 11.1605ZM7.46204 10.7899C6.62662 10.7899 5.94938 11.4671 5.94938 12.3025C5.94938 13.1379 6.62662 13.8152 7.46204 13.8152H17.107C16.93 13.3148 16.8405 12.81 16.8405 12.3025C16.8405 11.795 16.93 11.2902 17.107 10.7899H13.2101V12.8395L10.7899 12.0327L8.36963 12.8395V10.7899H7.46204ZM13.2101 9.57975H17.1439C16.9422 8.97797 16.8405 8.37234 16.8405 7.76457C16.8405 7.15679 16.9422 6.55116 17.1439 5.94938H7.76457C6.76207 5.94938 5.94938 6.76207 5.94938 7.76457C5.94938 8.76707 6.76207 9.57975 7.76457 9.57975H8.36963V7.15951H13.2101V9.57975Z" fill="#43301F" style="fill:#43301F;fill:color(display-p3 0.2627 0.1882 0.1216);fill-opacity:1;"/>
</svg>
