<svg width="24" height="24" viewBox="0 0 24 24" fill="none" xmlns="http://www.w3.org/2000/svg">
<path fill-rule="evenodd" clip-rule="evenodd" d="M12.2452 5.21351C14.2479 3.21073 17.4951 3.21073 19.4979 5.21351C21.5006 7.21628 21.5006 10.4634 19.4979 12.4662L12.0013 19.9627L4.50477 12.4662C2.50199 10.4634 2.50199 7.21628 4.50477 5.21351C6.50754 3.21073 9.75469 3.21073 11.7575 5.21351L12.0013 5.45736L12.2452 5.21351ZM17.1343 12.709H14.9995L12.7501 15.7082L10.8756 11.2094L9.75088 12.709H6.86834L12.0013 17.842L17.1343 12.709ZM5.38253 11.2094H9.00108L11.2505 8.21022L13.125 12.709L14.2497 11.2094H18.6201C19.8518 9.78378 19.7909 7.62729 18.4375 6.27389C17.0203 4.85674 14.7227 4.85674 13.3055 6.27389L12.0013 7.57812L10.6971 6.27389C9.27994 4.85674 6.98229 4.85674 5.56515 6.27389C4.21174 7.62729 4.15087 9.78378 5.38253 11.2094Z" fill="#43301F" style="fill:#43301F;fill:color(display-p3 0.2627 0.1882 0.1216);fill-opacity:1;"/>
</svg>
