<svg width="24" height="24" viewBox="0 0 24 24" fill="none" xmlns="http://www.w3.org/2000/svg">
<path fill-rule="evenodd" clip-rule="evenodd" d="M13.4767 16.7991V18.2758H16.43V11.557C14.745 11.2149 13.4767 9.72518 13.4767 7.9392C13.4767 5.90036 15.1295 4.24756 17.1684 4.24756C19.2072 4.24756 20.86 5.90036 20.86 7.9392C20.86 9.72518 19.5917 11.2149 17.9067 11.557V18.2758H20.86V19.7524H3.14014V18.2758H4.61679V16.7991H3.14014V15.3225H4.61679V12.3692H13.4767V15.3225H14.9534V16.7991H13.4767ZM6.09345 13.8458V15.3225H12.0001V13.8458H6.09345ZM6.09345 18.2758H12.0001V16.7991H6.09345V18.2758ZM17.1684 10.1542C18.3917 10.1542 19.3833 9.1625 19.3833 7.9392C19.3833 6.7159 18.3917 5.72421 17.1684 5.72421C15.9451 5.72421 14.9534 6.7159 14.9534 7.9392C14.9534 9.1625 15.9451 10.1542 17.1684 10.1542Z" fill="#43301F" style="fill:#43301F;fill:color(display-p3 0.2627 0.1882 0.1216);fill-opacity:1;"/>
</svg>
