<svg width="24" height="24" viewBox="0 0 24 24" fill="none" xmlns="http://www.w3.org/2000/svg">
<path fill-rule="evenodd" clip-rule="evenodd" d="M15.1216 19.5C14.086 19.5 13.2466 18.6605 13.2466 17.625C13.2466 16.5895 14.086 15.75 15.1216 15.75C16.1571 15.75 16.9966 16.5895 16.9966 17.625C16.9966 18.6605 16.1571 19.5 15.1216 19.5ZM15.1216 18.25C15.4668 18.25 15.7466 17.9702 15.7466 17.625C15.7466 17.2798 15.4668 17 15.1216 17C14.7764 17 14.4966 17.2798 14.4966 17.625C14.4966 17.9702 14.7764 18.25 15.1216 18.25ZM9.49658 19.5C8.46105 19.5 7.62158 18.6605 7.62158 17.625C7.62158 16.5895 8.46105 15.75 9.49658 15.75C10.5321 15.75 11.3716 16.5895 11.3716 17.625C11.3716 18.6605 10.5321 19.5 9.49658 19.5ZM9.49658 18.25C9.84176 18.25 10.1216 17.9702 10.1216 17.625C10.1216 17.2798 9.84176 17 9.49658 17C9.1514 17 8.87158 17.2798 8.87158 17.625C8.87158 17.9702 9.1514 18.25 9.49658 18.25ZM8.3947 5.75H18.8787L16.824 12H9.73398L10.0018 13.25H16.3716V14.5H8.99133L7.11633 5.75H5.12158V4.5H8.12684L8.3947 5.75ZM9.46613 10.75H15.9191L17.152 7H8.66256L9.46613 10.75Z" fill="#43301F" style="fill:#43301F;fill:color(display-p3 0.2627 0.1882 0.1216);fill-opacity:1;"/>
</svg>
