<svg width="24" height="24" viewBox="0 0 24 24" fill="none" xmlns="http://www.w3.org/2000/svg">
<mask id="path-1-outside-1_433_1290" maskUnits="userSpaceOnUse" x="2.37207" y="0.750061" width="19" height="22" fill="black">
<rect fill="white" x="2.37207" y="0.750061" width="19" height="22"/>
<path fill-rule="evenodd" clip-rule="evenodd" d="M5.75177 12.2298C5.71572 12.3025 5.66533 12.3672 5.60364 12.4199C5.54195 12.4726 5.47022 12.5123 5.39279 12.5366C5.31535 12.5609 5.2338 12.5693 5.15304 12.5612C5.07229 12.5532 4.994 12.5288 4.92288 12.4897C4.85177 12.4506 4.7893 12.3976 4.73924 12.3337C4.68917 12.2698 4.65255 12.1965 4.63157 12.1181C4.61059 12.0397 4.60569 11.9578 4.61717 11.8775C4.62864 11.7972 4.65625 11.72 4.69833 11.6506L6.53919 8.30654C6.59097 8.21192 6.66725 8.13297 6.76004 8.07795C6.85282 8.02294 6.95869 7.9939 7.06656 7.99387H14.0003C14.1052 7.99383 14.2082 8.02117 14.2992 8.07318C14.3903 8.12518 14.4662 8.20006 14.5194 8.29039L16.8404 11.8285H20.0128C20.0929 11.8269 20.1727 11.8412 20.2472 11.8708C20.3218 11.9003 20.3897 11.9444 20.447 12.0005C20.5043 12.0566 20.5498 12.1236 20.5809 12.1976C20.612 12.2715 20.628 12.3509 20.628 12.4311C20.628 12.5113 20.612 12.5907 20.5809 12.6646C20.5498 12.7385 20.5043 12.8055 20.447 12.8616C20.3897 12.9178 20.3218 12.9619 20.2472 12.9914C20.1727 13.0209 20.0929 13.0353 20.0128 13.0336H16.5153C16.4152 13.0337 16.3168 13.0087 16.2288 12.9612C16.1408 12.9136 16.0661 12.8448 16.0113 12.7611L14.1191 9.87668L12.6832 13.3367C12.6529 13.4096 12.6086 13.4759 12.5527 13.5317C12.4968 13.5875 12.4304 13.6318 12.3574 13.6619C12.2844 13.6921 12.2062 13.7076 12.1272 13.7075C12.0482 13.7075 11.97 13.6919 11.8971 13.6616C11.8241 13.6313 11.7579 13.5869 11.7021 13.531C11.6462 13.4752 11.602 13.4088 11.5718 13.3358C11.5416 13.2628 11.5261 13.1846 11.5262 13.1056C11.5263 13.0266 11.5419 12.9484 11.5722 12.8755L13.098 9.19844H10.9387L9.18413 13.5834L13.5665 16.5343C13.6486 16.5891 13.7159 16.6633 13.7624 16.7503C13.8089 16.8374 13.8331 16.9345 13.8331 17.0332H13.8349V21.6347C13.8365 21.7149 13.8222 21.7946 13.7927 21.8692C13.7631 21.9437 13.719 22.0117 13.6629 22.069C13.6068 22.1263 13.5398 22.1718 13.4659 22.2029C13.3919 22.2339 13.3125 22.2499 13.2323 22.2499C13.1521 22.2499 13.0727 22.2339 12.9988 22.2029C12.9249 22.1718 12.8579 22.1263 12.8018 22.069C12.7456 22.0117 12.7015 21.9437 12.672 21.8692C12.6425 21.7946 12.6281 21.7149 12.6298 21.6347V17.3516L8.13017 14.3231C8.00976 14.2487 7.91948 14.1342 7.8752 13.9997C7.83092 13.8653 7.83549 13.7195 7.88811 13.5881L9.64402 9.19844H7.4204L5.75281 12.2298H5.75177ZM14.1403 1.75006C14.812 1.75012 15.463 1.98311 15.9822 2.40931C16.5015 2.83552 16.8569 3.42859 16.9879 4.08746C17.1189 4.74633 17.0174 5.43025 16.7007 6.02268C16.384 6.61511 15.8717 7.0794 15.2511 7.33645C14.6304 7.5935 13.9398 7.6274 13.297 7.43237C12.6542 7.23735 12.0988 6.82546 11.7256 6.26689C11.3524 5.70833 11.1844 5.03764 11.2503 4.3691C11.3161 3.70057 11.6118 3.07555 12.0868 2.60053C12.3561 2.33048 12.6762 2.11632 13.0286 1.97037C13.381 1.82441 13.7588 1.74955 14.1403 1.75006ZM15.3414 3.45283C15.0636 3.17506 14.698 3.00223 14.3069 2.96378C13.9159 2.92534 13.5237 3.02366 13.197 3.24199C12.8704 3.46032 12.6295 3.78516 12.5155 4.16116C12.4015 4.53715 12.4214 4.94105 12.5718 5.30403C12.7222 5.66701 12.9938 5.96662 13.3403 6.15181C13.6868 6.337 14.0868 6.39632 14.4722 6.31966C14.8575 6.24299 15.2044 6.03509 15.4536 5.73137C15.7029 5.42765 15.8391 5.04691 15.8391 4.65401C15.8394 4.43088 15.7955 4.2099 15.7101 4.00376C15.6247 3.79762 15.4994 3.61039 15.3414 3.45283ZM3.97527 18.5221L7.28439 18.5017C7.38237 18.5013 7.47873 18.4767 7.56504 18.4304C7.65135 18.384 7.72497 18.3172 7.77945 18.2357L8.63331 17.0632C8.72695 16.9346 8.76566 16.7741 8.74094 16.6169C8.71621 16.4598 8.63007 16.3189 8.50147 16.2252C8.37286 16.1316 8.21233 16.0929 8.05518 16.1176C7.89803 16.1423 7.75714 16.2285 7.6635 16.3571L6.97484 17.3019L3.97006 17.3201C3.89122 17.3204 3.81322 17.3362 3.7405 17.3667C3.66778 17.3972 3.60178 17.4416 3.54625 17.4976C3.49072 17.5536 3.44676 17.6199 3.41688 17.6929C3.38699 17.7658 3.37177 17.8439 3.37207 17.9228C3.37238 18.0016 3.38822 18.0796 3.41867 18.1523C3.44912 18.2251 3.4936 18.2911 3.54957 18.3466C3.60553 18.4021 3.67188 18.4461 3.74484 18.476C3.81779 18.5059 3.89591 18.5211 3.97475 18.5208L3.97527 18.5221Z"/>
</mask>
<path fill-rule="evenodd" clip-rule="evenodd" d="M5.75177 12.2298C5.71572 12.3025 5.66533 12.3672 5.60364 12.4199C5.54195 12.4726 5.47022 12.5123 5.39279 12.5366C5.31535 12.5609 5.2338 12.5693 5.15304 12.5612C5.07229 12.5532 4.994 12.5288 4.92288 12.4897C4.85177 12.4506 4.7893 12.3976 4.73924 12.3337C4.68917 12.2698 4.65255 12.1965 4.63157 12.1181C4.61059 12.0397 4.60569 11.9578 4.61717 11.8775C4.62864 11.7972 4.65625 11.72 4.69833 11.6506L6.53919 8.30654C6.59097 8.21192 6.66725 8.13297 6.76004 8.07795C6.85282 8.02294 6.95869 7.9939 7.06656 7.99387H14.0003C14.1052 7.99383 14.2082 8.02117 14.2992 8.07318C14.3903 8.12518 14.4662 8.20006 14.5194 8.29039L16.8404 11.8285H20.0128C20.0929 11.8269 20.1727 11.8412 20.2472 11.8708C20.3218 11.9003 20.3897 11.9444 20.447 12.0005C20.5043 12.0566 20.5498 12.1236 20.5809 12.1976C20.612 12.2715 20.628 12.3509 20.628 12.4311C20.628 12.5113 20.612 12.5907 20.5809 12.6646C20.5498 12.7385 20.5043 12.8055 20.447 12.8616C20.3897 12.9178 20.3218 12.9619 20.2472 12.9914C20.1727 13.0209 20.0929 13.0353 20.0128 13.0336H16.5153C16.4152 13.0337 16.3168 13.0087 16.2288 12.9612C16.1408 12.9136 16.0661 12.8448 16.0113 12.7611L14.1191 9.87668L12.6832 13.3367C12.6529 13.4096 12.6086 13.4759 12.5527 13.5317C12.4968 13.5875 12.4304 13.6318 12.3574 13.6619C12.2844 13.6921 12.2062 13.7076 12.1272 13.7075C12.0482 13.7075 11.97 13.6919 11.8971 13.6616C11.8241 13.6313 11.7579 13.5869 11.7021 13.531C11.6462 13.4752 11.602 13.4088 11.5718 13.3358C11.5416 13.2628 11.5261 13.1846 11.5262 13.1056C11.5263 13.0266 11.5419 12.9484 11.5722 12.8755L13.098 9.19844H10.9387L9.18413 13.5834L13.5665 16.5343C13.6486 16.5891 13.7159 16.6633 13.7624 16.7503C13.8089 16.8374 13.8331 16.9345 13.8331 17.0332H13.8349V21.6347C13.8365 21.7149 13.8222 21.7946 13.7927 21.8692C13.7631 21.9437 13.719 22.0117 13.6629 22.069C13.6068 22.1263 13.5398 22.1718 13.4659 22.2029C13.3919 22.2339 13.3125 22.2499 13.2323 22.2499C13.1521 22.2499 13.0727 22.2339 12.9988 22.2029C12.9249 22.1718 12.8579 22.1263 12.8018 22.069C12.7456 22.0117 12.7015 21.9437 12.672 21.8692C12.6425 21.7946 12.6281 21.7149 12.6298 21.6347V17.3516L8.13017 14.3231C8.00976 14.2487 7.91948 14.1342 7.8752 13.9997C7.83092 13.8653 7.83549 13.7195 7.88811 13.5881L9.64402 9.19844H7.4204L5.75281 12.2298H5.75177ZM14.1403 1.75006C14.812 1.75012 15.463 1.98311 15.9822 2.40931C16.5015 2.83552 16.8569 3.42859 16.9879 4.08746C17.1189 4.74633 17.0174 5.43025 16.7007 6.02268C16.384 6.61511 15.8717 7.0794 15.2511 7.33645C14.6304 7.5935 13.9398 7.6274 13.297 7.43237C12.6542 7.23735 12.0988 6.82546 11.7256 6.26689C11.3524 5.70833 11.1844 5.03764 11.2503 4.3691C11.3161 3.70057 11.6118 3.07555 12.0868 2.60053C12.3561 2.33048 12.6762 2.11632 13.0286 1.97037C13.381 1.82441 13.7588 1.74955 14.1403 1.75006ZM15.3414 3.45283C15.0636 3.17506 14.698 3.00223 14.3069 2.96378C13.9159 2.92534 13.5237 3.02366 13.197 3.24199C12.8704 3.46032 12.6295 3.78516 12.5155 4.16116C12.4015 4.53715 12.4214 4.94105 12.5718 5.30403C12.7222 5.66701 12.9938 5.96662 13.3403 6.15181C13.6868 6.337 14.0868 6.39632 14.4722 6.31966C14.8575 6.24299 15.2044 6.03509 15.4536 5.73137C15.7029 5.42765 15.8391 5.04691 15.8391 4.65401C15.8394 4.43088 15.7955 4.2099 15.7101 4.00376C15.6247 3.79762 15.4994 3.61039 15.3414 3.45283ZM3.97527 18.5221L7.28439 18.5017C7.38237 18.5013 7.47873 18.4767 7.56504 18.4304C7.65135 18.384 7.72497 18.3172 7.77945 18.2357L8.63331 17.0632C8.72695 16.9346 8.76566 16.7741 8.74094 16.6169C8.71621 16.4598 8.63007 16.3189 8.50147 16.2252C8.37286 16.1316 8.21233 16.0929 8.05518 16.1176C7.89803 16.1423 7.75714 16.2285 7.6635 16.3571L6.97484 17.3019L3.97006 17.3201C3.89122 17.3204 3.81322 17.3362 3.7405 17.3667C3.66778 17.3972 3.60178 17.4416 3.54625 17.4976C3.49072 17.5536 3.44676 17.6199 3.41688 17.6929C3.38699 17.7658 3.37177 17.8439 3.37207 17.9228C3.37238 18.0016 3.38822 18.0796 3.41867 18.1523C3.44912 18.2251 3.4936 18.2911 3.54957 18.3466C3.60553 18.4021 3.67188 18.4461 3.74484 18.476C3.81779 18.5059 3.89591 18.5211 3.97475 18.5208L3.97527 18.5221Z" fill="#43301F" style="fill:#43301F;fill:color(display-p3 0.2627 0.1882 0.1216);fill-opacity:1;"/>
<path fill-rule="evenodd" clip-rule="evenodd" d="M5.75177 12.2298C5.71572 12.3025 5.66533 12.3672 5.60364 12.4199C5.54195 12.4726 5.47022 12.5123 5.39279 12.5366C5.31535 12.5609 5.2338 12.5693 5.15304 12.5612C5.07229 12.5532 4.994 12.5288 4.92288 12.4897C4.85177 12.4506 4.7893 12.3976 4.73924 12.3337C4.68917 12.2698 4.65255 12.1965 4.63157 12.1181C4.61059 12.0397 4.60569 11.9578 4.61717 11.8775C4.62864 11.7972 4.65625 11.72 4.69833 11.6506L6.53919 8.30654C6.59097 8.21192 6.66725 8.13297 6.76004 8.07795C6.85282 8.02294 6.95869 7.9939 7.06656 7.99387H14.0003C14.1052 7.99383 14.2082 8.02117 14.2992 8.07318C14.3903 8.12518 14.4662 8.20006 14.5194 8.29039L16.8404 11.8285H20.0128C20.0929 11.8269 20.1727 11.8412 20.2472 11.8708C20.3218 11.9003 20.3897 11.9444 20.447 12.0005C20.5043 12.0566 20.5498 12.1236 20.5809 12.1976C20.612 12.2715 20.628 12.3509 20.628 12.4311C20.628 12.5113 20.612 12.5907 20.5809 12.6646C20.5498 12.7385 20.5043 12.8055 20.447 12.8616C20.3897 12.9178 20.3218 12.9619 20.2472 12.9914C20.1727 13.0209 20.0929 13.0353 20.0128 13.0336H16.5153C16.4152 13.0337 16.3168 13.0087 16.2288 12.9612C16.1408 12.9136 16.0661 12.8448 16.0113 12.7611L14.1191 9.87668L12.6832 13.3367C12.6529 13.4096 12.6086 13.4759 12.5527 13.5317C12.4968 13.5875 12.4304 13.6318 12.3574 13.6619C12.2844 13.6921 12.2062 13.7076 12.1272 13.7075C12.0482 13.7075 11.97 13.6919 11.8971 13.6616C11.8241 13.6313 11.7579 13.5869 11.7021 13.531C11.6462 13.4752 11.602 13.4088 11.5718 13.3358C11.5416 13.2628 11.5261 13.1846 11.5262 13.1056C11.5263 13.0266 11.5419 12.9484 11.5722 12.8755L13.098 9.19844H10.9387L9.18413 13.5834L13.5665 16.5343C13.6486 16.5891 13.7159 16.6633 13.7624 16.7503C13.8089 16.8374 13.8331 16.9345 13.8331 17.0332H13.8349V21.6347C13.8365 21.7149 13.8222 21.7946 13.7927 21.8692C13.7631 21.9437 13.719 22.0117 13.6629 22.069C13.6068 22.1263 13.5398 22.1718 13.4659 22.2029C13.3919 22.2339 13.3125 22.2499 13.2323 22.2499C13.1521 22.2499 13.0727 22.2339 12.9988 22.2029C12.9249 22.1718 12.8579 22.1263 12.8018 22.069C12.7456 22.0117 12.7015 21.9437 12.672 21.8692C12.6425 21.7946 12.6281 21.7149 12.6298 21.6347V17.3516L8.13017 14.3231C8.00976 14.2487 7.91948 14.1342 7.8752 13.9997C7.83092 13.8653 7.83549 13.7195 7.88811 13.5881L9.64402 9.19844H7.4204L5.75281 12.2298H5.75177ZM14.1403 1.75006C14.812 1.75012 15.463 1.98311 15.9822 2.40931C16.5015 2.83552 16.8569 3.42859 16.9879 4.08746C17.1189 4.74633 17.0174 5.43025 16.7007 6.02268C16.384 6.61511 15.8717 7.0794 15.2511 7.33645C14.6304 7.5935 13.9398 7.6274 13.297 7.43237C12.6542 7.23735 12.0988 6.82546 11.7256 6.26689C11.3524 5.70833 11.1844 5.03764 11.2503 4.3691C11.3161 3.70057 11.6118 3.07555 12.0868 2.60053C12.3561 2.33048 12.6762 2.11632 13.0286 1.97037C13.381 1.82441 13.7588 1.74955 14.1403 1.75006ZM15.3414 3.45283C15.0636 3.17506 14.698 3.00223 14.3069 2.96378C13.9159 2.92534 13.5237 3.02366 13.197 3.24199C12.8704 3.46032 12.6295 3.78516 12.5155 4.16116C12.4015 4.53715 12.4214 4.94105 12.5718 5.30403C12.7222 5.66701 12.9938 5.96662 13.3403 6.15181C13.6868 6.337 14.0868 6.39632 14.4722 6.31966C14.8575 6.24299 15.2044 6.03509 15.4536 5.73137C15.7029 5.42765 15.8391 5.04691 15.8391 4.65401C15.8394 4.43088 15.7955 4.2099 15.7101 4.00376C15.6247 3.79762 15.4994 3.61039 15.3414 3.45283ZM3.97527 18.5221L7.28439 18.5017C7.38237 18.5013 7.47873 18.4767 7.56504 18.4304C7.65135 18.384 7.72497 18.3172 7.77945 18.2357L8.63331 17.0632C8.72695 16.9346 8.76566 16.7741 8.74094 16.6169C8.71621 16.4598 8.63007 16.3189 8.50147 16.2252C8.37286 16.1316 8.21233 16.0929 8.05518 16.1176C7.89803 16.1423 7.75714 16.2285 7.6635 16.3571L6.97484 17.3019L3.97006 17.3201C3.89122 17.3204 3.81322 17.3362 3.7405 17.3667C3.66778 17.3972 3.60178 17.4416 3.54625 17.4976C3.49072 17.5536 3.44676 17.6199 3.41688 17.6929C3.38699 17.7658 3.37177 17.8439 3.37207 17.9228C3.37238 18.0016 3.38822 18.0796 3.41867 18.1523C3.44912 18.2251 3.4936 18.2911 3.54957 18.3466C3.60553 18.4021 3.67188 18.4461 3.74484 18.476C3.81779 18.5059 3.89591 18.5211 3.97475 18.5208L3.97527 18.5221Z" stroke="#43301F" style="stroke:#43301F;stroke:color(display-p3 0.2627 0.1882 0.1216);stroke-opacity:1;" stroke-width="0.4" mask="url(#path-1-outside-1_433_1290)"/>
</svg>
